<svg class="rich-terminal" viewBox="0 0 994 635.5999999999999" xmlns="http://www.w3.org/2000/svg">
    <!-- Generated with Rich https://www.textualize.io -->
    <style>

    @font-face {
        font-family: "Fira Code";
        src: local("FiraCode-Regular"),
                url("https://cdnjs.cloudflare.com/ajax/libs/firacode/6.2.0/woff2/FiraCode-Regular.woff2") format("woff2"),
                url("https://cdnjs.cloudflare.com/ajax/libs/firacode/6.2.0/woff/FiraCode-Regular.woff") format("woff");
        font-style: normal;
        font-weight: 400;
    }
    @font-face {
        font-family: "Fira Code";
        src: local("FiraCode-Bold"),
                url("https://cdnjs.cloudflare.com/ajax/libs/firacode/6.2.0/woff2/FiraCode-Bold.woff2") format("woff2"),
                url("https://cdnjs.cloudflare.com/ajax/libs/firacode/6.2.0/woff/FiraCode-Bold.woff") format("woff");
        font-style: bold;
        font-weight: 700;
    }

    .terminal-173057816-matrix {
        font-family: Fira Code, monospace;
        font-size: 20px;
        line-height: 24.4px;
        font-variant-east-asian: full-width;
    }

    .terminal-173057816-title {
        font-size: 18px;
        font-weight: bold;
        font-family: arial;
    }

    .terminal-173057816-r1 { fill: #c5c8c6 }
.terminal-173057816-r2 { fill: #e0e0e0 }
.terminal-173057816-r3 { fill: #e0e0e0;font-weight: bold }
.terminal-173057816-r4 { fill: #1e1e1e }
.terminal-173057816-r5 { fill: #003054 }
.terminal-173057816-r6 { fill: #ffa62b;font-weight: bold }
.terminal-173057816-r7 { fill: #495259 }
    </style>

    <defs>
    <clipPath id="terminal-173057816-clip-terminal">
      <rect x="0" y="0" width="975.0" height="584.5999999999999" />
    </clipPath>
    <clipPath id="terminal-173057816-line-0">
    <rect x="0" y="1.5" width="976" height="24.65"/>
            </clipPath>
<clipPath id="terminal-173057816-line-1">
    <rect x="0" y="25.9" width="976" height="24.65"/>
            </clipPath>
<clipPath id="terminal-173057816-line-2">
    <rect x="0" y="50.3" width="976" height="24.65"/>
            </clipPath>
<clipPath id="terminal-173057816-line-3">
    <rect x="0" y="74.7" width="976" height="24.65"/>
            </clipPath>
<clipPath id="terminal-173057816-line-4">
    <rect x="0" y="99.1" width="976" height="24.65"/>
            </clipPath>
<clipPath id="terminal-173057816-line-5">
    <rect x="0" y="123.5" width="976" height="24.65"/>
            </clipPath>
<clipPath id="terminal-173057816-line-6">
    <rect x="0" y="147.9" width="976" height="24.65"/>
            </clipPath>
<clipPath id="terminal-173057816-line-7">
    <rect x="0" y="172.3" width="976" height="24.65"/>
            </clipPath>
<clipPath id="terminal-173057816-line-8">
    <rect x="0" y="196.7" width="976" height="24.65"/>
            </clipPath>
<clipPath id="terminal-173057816-line-9">
    <rect x="0" y="221.1" width="976" height="24.65"/>
            </clipPath>
<clipPath id="terminal-173057816-line-10">
    <rect x="0" y="245.5" width="976" height="24.65"/>
            </clipPath>
<clipPath id="terminal-173057816-line-11">
    <rect x="0" y="269.9" width="976" height="24.65"/>
            </clipPath>
<clipPath id="terminal-173057816-line-12">
    <rect x="0" y="294.3" width="976" height="24.65"/>
            </clipPath>
<clipPath id="terminal-173057816-line-13">
    <rect x="0" y="318.7" width="976" height="24.65"/>
            </clipPath>
<clipPath id="terminal-173057816-line-14">
    <rect x="0" y="343.1" width="976" height="24.65"/>
            </clipPath>
<clipPath id="terminal-173057816-line-15">
    <rect x="0" y="367.5" width="976" height="24.65"/>
            </clipPath>
<clipPath id="terminal-173057816-line-16">
    <rect x="0" y="391.9" width="976" height="24.65"/>
            </clipPath>
<clipPath id="terminal-173057816-line-17">
    <rect x="0" y="416.3" width="976" height="24.65"/>
            </clipPath>
<clipPath id="terminal-173057816-line-18">
    <rect x="0" y="440.7" width="976" height="24.65"/>
            </clipPath>
<clipPath id="terminal-173057816-line-19">
    <rect x="0" y="465.1" width="976" height="24.65"/>
            </clipPath>
<clipPath id="terminal-173057816-line-20">
    <rect x="0" y="489.5" width="976" height="24.65"/>
            </clipPath>
<clipPath id="terminal-173057816-line-21">
    <rect x="0" y="513.9" width="976" height="24.65"/>
            </clipPath>
<clipPath id="terminal-173057816-line-22">
    <rect x="0" y="538.3" width="976" height="24.65"/>
            </clipPath>
    </defs>

    <rect fill="#292929" stroke="rgba(255,255,255,0.35)" stroke-width="1" x="1" y="1" width="992" height="633.6" rx="8"/><text class="terminal-173057816-title" fill="#c5c8c6" text-anchor="middle" x="496" y="27">LazyUPS</text>
            <g transform="translate(26,22)">
            <circle cx="0" cy="0" r="7" fill="#ff5f57"/>
            <circle cx="22" cy="0" r="7" fill="#febc2e"/>
            <circle cx="44" cy="0" r="7" fill="#28c840"/>
            </g>
        
    <g transform="translate(9, 41)" clip-path="url(#terminal-173057816-clip-terminal)">
    <rect fill="#242f38" x="0" y="1.5" width="12.2" height="24.65" shape-rendering="crispEdges"/><rect fill="#242f38" x="12.2" y="1.5" width="12.2" height="24.65" shape-rendering="crispEdges"/><rect fill="#242f38" x="24.4" y="1.5" width="61" height="24.65" shape-rendering="crispEdges"/><rect fill="#242f38" x="85.4" y="1.5" width="12.2" height="24.65" shape-rendering="crispEdges"/><rect fill="#242f38" x="97.6" y="1.5" width="329.4" height="24.65" shape-rendering="crispEdges"/><rect fill="#242f38" x="427" y="1.5" width="85.4" height="24.65" shape-rendering="crispEdges"/><rect fill="#242f38" x="512.4" y="1.5" width="341.6" height="24.65" shape-rendering="crispEdges"/><rect fill="#242f38" x="854" y="1.5" width="12.2" height="24.65" shape-rendering="crispEdges"/><rect fill="#242f38" x="866.2" y="1.5" width="0" height="24.65" shape-rendering="crispEdges"/><rect fill="#242f38" x="866.2" y="1.5" width="97.6" height="24.65" shape-rendering="crispEdges"/><rect fill="#242f38" x="963.8" y="1.5" width="12.2" height="24.65" shape-rendering="crispEdges"/><rect fill="#153854" x="0" y="25.9" width="85.4" height="24.65" shape-rendering="crispEdges"/><rect fill="#153854" x="85.4" y="25.9" width="61" height="24.65" shape-rendering="crispEdges"/><rect fill="#121212" x="146.4" y="25.9" width="829.6" height="24.65" shape-rendering="crispEdges"/><rect fill="#1e1e1e" x="0" y="50.3" width="85.4" height="24.65" shape-rendering="crispEdges"/><rect fill="#1e1e1e" x="85.4" y="50.3" width="61" height="24.65" shape-rendering="crispEdges"/><rect fill="#121212" x="146.4" y="50.3" width="24.4" height="24.65" shape-rendering="crispEdges"/><rect fill="#121212" x="170.8" y="50.3" width="707.6" height="24.65" shape-rendering="crispEdges"/><rect fill="#121212" x="878.4" y="50.3" width="73.2" height="24.65" shape-rendering="crispEdges"/><rect fill="#121212" x="951.6" y="50.3" width="24.4" height="24.65" shape-rendering="crispEdges"/><rect fill="#1e1e1e" x="0" y="74.7" width="97.6" height="24.65" shape-rendering="crispEdges"/><rect fill="#1e1e1e" x="97.6" y="74.7" width="48.8" height="24.65" shape-rendering="crispEdges"/><rect fill="#121212" x="146.4" y="74.7" width="24.4" height="24.65" shape-rendering="crispEdges"/><rect fill="#121212" x="170.8" y="74.7" width="97.6" height="24.65" shape-rendering="crispEdges"/><rect fill="#121212" x="268.4" y="74.7" width="683.2" height="24.65" shape-rendering="crispEdges"/><rect fill="#121212" x="951.6" y="74.7" width="24.4" height="24.65" shape-rendering="crispEdges"/><rect fill="#1e1e1e" x="0" y="99.1" width="109.8" height="24.65" shape-rendering="crispEdges"/><rect fill="#1e1e1e" x="109.8" y="99.1" width="36.6" height="24.65" shape-rendering="crispEdges"/><rect fill="#121212" x="146.4" y="99.1" width="24.4" height="24.65" shape-rendering="crispEdges"/><rect fill="#121212" x="170.8" y="99.1" width="780.8" height="24.65" shape-rendering="crispEdges"/><rect fill="#121212" x="951.6" y="99.1" width="24.4" height="24.65" shape-rendering="crispEdges"/><rect fill="#1e1e1e" x="0" y="123.5" width="97.6" height="24.65" shape-rendering="crispEdges"/><rect fill="#1e1e1e" x="97.6" y="123.5" width="48.8" height="24.65" shape-rendering="crispEdges"/><rect fill="#121212" x="146.4" y="123.5" width="24.4" height="24.65" shape-rendering="crispEdges"/><rect fill="#242f38" x="170.8" y="123.5" width="305" height="24.65" shape-rendering="crispEdges"/><rect fill="#242f38" x="475.8" y="123.5" width="231.8" height="24.65" shape-rendering="crispEdges"/><rect fill="#242f38" x="707.6" y="123.5" width="122" height="24.65" shape-rendering="crispEdges"/><rect fill="#242f38" x="829.6" y="123.5" width="122" height="24.65" shape-rendering="crispEdges"/><rect fill="#121212" x="951.6" y="123.5" width="24.4" height="24.65" shape-rendering="crispEdges"/><rect fill="#1e1e1e" x="0" y="147.9" width="146.4" height="24.65" shape-rendering="crispEdges"/><rect fill="#121212" x="146.4" y="147.9" width="24.4" height="24.65" shape-rendering="crispEdges"/><rect fill="#153854" x="170.8" y="147.9" width="305" height="24.65" shape-rendering="crispEdges"/><rect fill="#153854" x="475.8" y="147.9" width="231.8" height="24.65" shape-rendering="crispEdges"/><rect fill="#153854" x="707.6" y="147.9" width="122" height="24.65" shape-rendering="crispEdges"/><rect fill="#153854" x="829.6" y="147.9" width="122" height="24.65" shape-rendering="crispEdges"/><rect fill="#121212" x="951.6" y="147.9" width="24.4" height="24.65" shape-rendering="crispEdges"/><rect fill="#1e1e1e" x="0" y="172.3" width="146.4" height="24.65" shape-rendering="crispEdges"/><rect fill="#121212" x="146.4" y="172.3" width="24.4" height="24.65" shape-rendering="crispEdges"/><rect fill="#1e1e1e" x="170.8" y="172.3" width="305" height="24.65" shape-rendering="crispEdges"/><rect fill="#1e1e1e" x="475.8" y="172.3" width="231.8" height="24.65" shape-rendering="crispEdges"/><rect fill="#1e1e1e" x="707.6" y="172.3" width="122" height="24.65" shape-rendering="crispEdges"/><rect fill="#1e1e1e" x="829.6" y="172.3" width="122" height="24.65" shape-rendering="crispEdges"/><rect fill="#121212" x="951.6" y="172.3" width="24.4" height="24.65" shape-rendering="crispEdges"/><rect fill="#1e1e1e" x="0" y="196.7" width="146.4" height="24.65" shape-rendering="crispEdges"/><rect fill="#121212" x="146.4" y="196.7" width="24.4" height="24.65" shape-rendering="crispEdges"/><rect fill="#171717" x="170.8" y="196.7" width="305" height="24.65" shape-rendering="crispEdges"/><rect fill="#171717" x="475.8" y="196.7" width="231.8" height="24.65" shape-rendering="crispEdges"/><rect fill="#171717" x="707.6" y="196.7" width="122" height="24.65" shape-rendering="crispEdges"/><rect fill="#171717" x="829.6" y="196.7" width="122" height="24.65" shape-rendering="crispEdges"/><rect fill="#121212" x="951.6" y="196.7" width="24.4" height="24.65" shape-rendering="crispEdges"/><rect fill="#1e1e1e" x="0" y="221.1" width="146.4" height="24.65" shape-rendering="crispEdges"/><rect fill="#121212" x="146.4" y="221.1" width="24.4" height="24.65" shape-rendering="crispEdges"/><rect fill="#1e1e1e" x="170.8" y="221.1" width="780.8" height="24.65" shape-rendering="crispEdges"/><rect fill="#121212" x="951.6" y="221.1" width="24.4" height="24.65" shape-rendering="crispEdges"/><rect fill="#1e1e1e" x="0" y="245.5" width="146.4" height="24.65" shape-rendering="crispEdges"/><rect fill="#121212" x="146.4" y="245.5" width="24.4" height="24.65" shape-rendering="crispEdges"/><rect fill="#1e1e1e" x="170.8" y="245.5" width="780.8" height="24.65" shape-rendering="crispEdges"/><rect fill="#121212" x="951.6" y="245.5" width="24.4" height="24.65" shape-rendering="crispEdges"/><rect fill="#1e1e1e" x="0" y="269.9" width="146.4" height="24.65" shape-rendering="crispEdges"/><rect fill="#121212" x="146.4" y="269.9" width="24.4" height="24.65" shape-rendering="crispEdges"/><rect fill="#1e1e1e" x="170.8" y="269.9" width="780.8" height="24.65" shape-rendering="crispEdges"/><rect fill="#121212" x="951.6" y="269.9" width="24.4" height="24.65" shape-rendering="crispEdges"/><rect fill="#1e1e1e" x="0" y="294.3" width="146.4" height="24.65" shape-rendering="crispEdges"/><rect fill="#121212" x="146.4" y="294.3" width="24.4" height="24.65" shape-rendering="crispEdges"/><rect fill="#1e1e1e" x="170.8" y="294.3" width="780.8" height="24.65" shape-rendering="crispEdges"/><rect fill="#121212" x="951.6" y="294.3" width="24.4" height="24.65" shape-rendering="crispEdges"/><rect fill="#1e1e1e" x="0" y="318.7" width="146.4" height="24.65" shape-rendering="crispEdges"/><rect fill="#121212" x="146.4" y="318.7" width="24.4" height="24.65" shape-rendering="crispEdges"/><rect fill="#1e1e1e" x="170.8" y="318.7" width="780.8" height="24.65" shape-rendering="crispEdges"/><rect fill="#121212" x="951.6" y="318.7" width="24.4" height="24.65" shape-rendering="crispEdges"/><rect fill="#1e1e1e" x="0" y="343.1" width="146.4" height="24.65" shape-rendering="crispEdges"/><rect fill="#121212" x="146.4" y="343.1" width="24.4" height="24.65" shape-rendering="crispEdges"/><rect fill="#1e1e1e" x="170.8" y="343.1" width="780.8" height="24.65" shape-rendering="crispEdges"/><rect fill="#121212" x="951.6" y="343.1" width="24.4" height="24.65" shape-rendering="crispEdges"/><rect fill="#1e1e1e" x="0" y="367.5" width="146.4" height="24.65" shape-rendering="crispEdges"/><rect fill="#121212" x="146.4" y="367.5" width="24.4" height="24.65" shape-rendering="crispEdges"/><rect fill="#1e1e1e" x="170.8" y="367.5" width="780.8" height="24.65" shape-rendering="crispEdges"/><rect fill="#121212" x="951.6" y="367.5" width="24.4" height="24.65" shape-rendering="crispEdges"/><rect fill="#1e1e1e" x="0" y="391.9" width="146.4" height="24.65" shape-rendering="crispEdges"/><rect fill="#121212" x="146.4" y="391.9" width="24.4" height="24.65" shape-rendering="crispEdges"/><rect fill="#1e1e1e" x="170.8" y="391.9" width="780.8" height="24.65" shape-rendering="crispEdges"/><rect fill="#121212" x="951.6" y="391.9" width="24.4" height="24.65" shape-rendering="crispEdges"/><rect fill="#1e1e1e" x="0" y="416.3" width="146.4" height="24.65" shape-rendering="crispEdges"/><rect fill="#121212" x="146.4" y="416.3" width="24.4" height="24.65" shape-rendering="crispEdges"/><rect fill="#1e1e1e" x="170.8" y="416.3" width="780.8" height="24.65" shape-rendering="crispEdges"/><rect fill="#121212" x="951.6" y="416.3" width="24.4" height="24.65" shape-rendering="crispEdges"/><rect fill="#1e1e1e" x="0" y="440.7" width="146.4" height="24.65" shape-rendering="crispEdges"/><rect fill="#121212" x="146.4" y="440.7" width="24.4" height="24.65" shape-rendering="crispEdges"/><rect fill="#1e1e1e" x="170.8" y="440.7" width="780.8" height="24.65" shape-rendering="crispEdges"/><rect fill="#121212" x="951.6" y="440.7" width="24.4" height="24.65" shape-rendering="crispEdges"/><rect fill="#1e1e1e" x="0" y="465.1" width="146.4" height="24.65" shape-rendering="crispEdges"/><rect fill="#121212" x="146.4" y="465.1" width="24.4" height="24.65" shape-rendering="crispEdges"/><rect fill="#1e1e1e" x="170.8" y="465.1" width="780.8" height="24.65" shape-rendering="crispEdges"/><rect fill="#121212" x="951.6" y="465.1" width="24.4" height="24.65" shape-rendering="crispEdges"/><rect fill="#1e1e1e" x="0" y="489.5" width="146.4" height="24.65" shape-rendering="crispEdges"/><rect fill="#121212" x="146.4" y="489.5" width="24.4" height="24.65" shape-rendering="crispEdges"/><rect fill="#1e1e1e" x="170.8" y="489.5" width="780.8" height="24.65" shape-rendering="crispEdges"/><rect fill="#121212" x="951.6" y="489.5" width="24.4" height="24.65" shape-rendering="crispEdges"/><rect fill="#1e1e1e" x="0" y="513.9" width="146.4" height="24.65" shape-rendering="crispEdges"/><rect fill="#121212" x="146.4" y="513.9" width="24.4" height="24.65" shape-rendering="crispEdges"/><rect fill="#003054" x="170.8" y="513.9" width="12.2" height="24.65" shape-rendering="crispEdges"/><rect fill="#003054" x="183" y="513.9" width="12.2" height="24.65" shape-rendering="crispEdges"/><rect fill="#003054" x="195.2" y="513.9" width="12.2" height="24.65" shape-rendering="crispEdges"/><rect fill="#003054" x="207.4" y="513.9" width="12.2" height="24.65" shape-rendering="crispEdges"/><rect fill="#003054" x="219.6" y="513.9" width="12.2" height="24.65" shape-rendering="crispEdges"/><rect fill="#003054" x="231.8" y="513.9" width="12.2" height="24.65" shape-rendering="crispEdges"/><rect fill="#003054" x="244" y="513.9" width="12.2" height="24.65" shape-rendering="crispEdges"/><rect fill="#003054" x="256.2" y="513.9" width="12.2" height="24.65" shape-rendering="crispEdges"/><rect fill="#003054" x="268.4" y="513.9" width="12.2" height="24.65" shape-rendering="crispEdges"/><rect fill="#003054" x="280.6" y="513.9" width="12.2" height="24.65" shape-rendering="crispEdges"/><rect fill="#003054" x="292.8" y="513.9" width="12.2" height="24.65" shape-rendering="crispEdges"/><rect fill="#003054" x="305" y="513.9" width="12.2" height="24.65" shape-rendering="crispEdges"/><rect fill="#003054" x="317.2" y="513.9" width="12.2" height="24.65" shape-rendering="crispEdges"/><rect fill="#003054" x="329.4" y="513.9" width="12.2" height="24.65" shape-rendering="crispEdges"/><rect fill="#003054" x="341.6" y="513.9" width="12.2" height="24.65" shape-rendering="crispEdges"/><rect fill="#003054" x="353.8" y="513.9" width="12.2" height="24.65" shape-rendering="crispEdges"/><rect fill="#003054" x="366" y="513.9" width="12.2" height="24.65" shape-rendering="crispEdges"/><rect fill="#003054" x="378.2" y="513.9" width="12.2" height="24.65" shape-rendering="crispEdges"/><rect fill="#003054" x="390.4" y="513.9" width="12.2" height="24.65" shape-rendering="crispEdges"/><rect fill="#003054" x="402.6" y="513.9" width="12.2" height="24.65" shape-rendering="crispEdges"/><rect fill="#003054" x="414.8" y="513.9" width="12.2" height="24.65" shape-rendering="crispEdges"/><rect fill="#003054" x="427" y="513.9" width="12.2" height="24.65" shape-rendering="crispEdges"/><rect fill="#003054" x="439.2" y="513.9" width="12.2" height="24.65" shape-rendering="crispEdges"/><rect fill="#003054" x="451.4" y="513.9" width="12.2" height="24.65" shape-rendering="crispEdges"/><rect fill="#003054" x="463.6" y="513.9" width="12.2" height="24.65" shape-rendering="crispEdges"/><rect fill="#003054" x="475.8" y="513.9" width="12.2" height="24.65" shape-rendering="crispEdges"/><rect fill="#003054" x="488" y="513.9" width="12.2" height="24.65" shape-rendering="crispEdges"/><rect fill="#003054" x="500.2" y="513.9" width="12.2" height="24.65" shape-rendering="crispEdges"/><rect fill="#000000" x="512.4" y="513.9" width="12.2" height="24.65" shape-rendering="crispEdges"/><rect fill="#000000" x="524.6" y="513.9" width="12.2" height="24.65" shape-rendering="crispEdges"/><rect fill="#000000" x="536.8" y="513.9" width="12.2" height="24.65" shape-rendering="crispEdges"/><rect fill="#000000" x="549" y="513.9" width="12.2" height="24.65" shape-rendering="crispEdges"/><rect fill="#000000" x="561.2" y="513.9" width="12.2" height="24.65" shape-rendering="crispEdges"/><rect fill="#000000" x="573.4" y="513.9" width="12.2" height="24.65" shape-rendering="crispEdges"/><rect fill="#000000" x="585.6" y="513.9" width="12.2" height="24.65" shape-rendering="crispEdges"/><rect fill="#000000" x="597.8" y="513.9" width="12.2" height="24.65" shape-rendering="crispEdges"/><rect fill="#000000" x="610" y="513.9" width="12.2" height="24.65" shape-rendering="crispEdges"/><rect fill="#000000" x="622.2" y="513.9" width="12.2" height="24.65" shape-rendering="crispEdges"/><rect fill="#000000" x="634.4" y="513.9" width="12.2" height="24.65" shape-rendering="crispEdges"/><rect fill="#000000" x="646.6" y="513.9" width="12.2" height="24.65" shape-rendering="crispEdges"/><rect fill="#000000" x="658.8" y="513.9" width="12.2" height="24.65" shape-rendering="crispEdges"/><rect fill="#000000" x="671" y="513.9" width="12.2" height="24.65" shape-rendering="crispEdges"/><rect fill="#000000" x="683.2" y="513.9" width="12.2" height="24.65" shape-rendering="crispEdges"/><rect fill="#000000" x="695.4" y="513.9" width="12.2" height="24.65" shape-rendering="crispEdges"/><rect fill="#000000" x="707.6" y="513.9" width="12.2" height="24.65" shape-rendering="crispEdges"/><rect fill="#000000" x="719.8" y="513.9" width="12.2" height="24.65" shape-rendering="crispEdges"/><rect fill="#000000" x="732" y="513.9" width="12.2" height="24.65" shape-rendering="crispEdges"/><rect fill="#000000" x="744.2" y="513.9" width="12.2" height="24.65" shape-rendering="crispEdges"/><rect fill="#000000" x="756.4" y="513.9" width="12.2" height="24.65" shape-rendering="crispEdges"/><rect fill="#000000" x="768.6" y="513.9" width="12.2" height="24.65" shape-rendering="crispEdges"/><rect fill="#000000" x="780.8" y="513.9" width="12.2" height="24.65" shape-rendering="crispEdges"/><rect fill="#000000" x="793" y="513.9" width="12.2" height="24.65" shape-rendering="crispEdges"/><rect fill="#000000" x="805.2" y="513.9" width="12.2" height="24.65" shape-rendering="crispEdges"/><rect fill="#000000" x="817.4" y="513.9" width="12.2" height="24.65" shape-rendering="crispEdges"/><rect fill="#000000" x="829.6" y="513.9" width="12.2" height="24.65" shape-rendering="crispEdges"/><rect fill="#000000" x="841.8" y="513.9" width="12.2" height="24.65" shape-rendering="crispEdges"/><rect fill="#000000" x="854" y="513.9" width="12.2" height="24.65" shape-rendering="crispEdges"/><rect fill="#000000" x="866.2" y="513.9" width="12.2" height="24.65" shape-rendering="crispEdges"/><rect fill="#000000" x="878.4" y="513.9" width="12.2" height="24.65" shape-rendering="crispEdges"/><rect fill="#000000" x="890.6" y="513.9" width="12.2" height="24.65" shape-rendering="crispEdges"/><rect fill="#000000" x="902.8" y="513.9" width="12.2" height="24.65" shape-rendering="crispEdges"/><rect fill="#000000" x="915" y="513.9" width="12.2" height="24.65" shape-rendering="crispEdges"/><rect fill="#000000" x="927.2" y="513.9" width="12.2" height="24.65" shape-rendering="crispEdges"/><rect fill="#000000" x="939.4" y="513.9" width="12.2" height="24.65" shape-rendering="crispEdges"/><rect fill="#121212" x="951.6" y="513.9" width="24.4" height="24.65" shape-rendering="crispEdges"/><rect fill="#1e1e1e" x="0" y="538.3" width="146.4" height="24.65" shape-rendering="crispEdges"/><rect fill="#121212" x="146.4" y="538.3" width="829.6" height="24.65" shape-rendering="crispEdges"/><rect fill="#242f38" x="0" y="562.7" width="36.6" height="24.65" shape-rendering="crispEdges"/><rect fill="#242f38" x="36.6" y="562.7" width="61" height="24.65" shape-rendering="crispEdges"/><rect fill="#242f38" x="97.6" y="562.7" width="85.4" height="24.65" shape-rendering="crispEdges"/><rect fill="#242f38" x="183" y="562.7" width="195.2" height="24.65" shape-rendering="crispEdges"/><rect fill="#242f38" x="378.2" y="562.7" width="36.6" height="24.65" shape-rendering="crispEdges"/><rect fill="#242f38" x="414.8" y="562.7" width="85.4" height="24.65" shape-rendering="crispEdges"/><rect fill="#242f38" x="500.2" y="562.7" width="329.4" height="24.65" shape-rendering="crispEdges"/><rect fill="#242f38" x="829.6" y="562.7" width="12.2" height="24.65" shape-rendering="crispEdges"/><rect fill="#242f38" x="841.8" y="562.7" width="24.4" height="24.65" shape-rendering="crispEdges"/><rect fill="#242f38" x="866.2" y="562.7" width="97.6" height="24.65" shape-rendering="crispEdges"/><rect fill="#242f38" x="963.8" y="562.7" width="12.2" height="24.65" shape-rendering="crispEdges"/>
    <g class="terminal-173057816-matrix">
    <text class="terminal-173057816-r2" x="12.2" y="20" textLength="12.2" clip-path="url(#terminal-173057816-line-0)">⭘</text><text class="terminal-173057816-r2" x="427" y="20" textLength="85.4" clip-path="url(#terminal-173057816-line-0)">LazyUPS</text><text class="terminal-173057816-r1" x="976" y="20" textLength="12.2" clip-path="url(#terminal-173057816-line-0)">
</text><text class="terminal-173057816-r2" x="0" y="44.4" textLength="85.4" clip-path="url(#terminal-173057816-line-1)">Monitor</text><text class="terminal-173057816-r1" x="976" y="44.4" textLength="12.2" clip-path="url(#terminal-173057816-line-1)">
</text><text class="terminal-173057816-r2" x="0" y="68.8" textLength="85.4" clip-path="url(#terminal-173057816-line-2)">Details</text><text class="terminal-173057816-r2" x="170.8" y="68.8" textLength="707.6" clip-path="url(#terminal-173057816-line-2)">Showing&#160;3&#160;device(s).&#160;Refresh&#160;every&#160;5s&#160;·&#160;updated&#160;2026-03-11</text><text class="terminal-173057816-r1" x="976" y="68.8" textLength="12.2" clip-path="url(#terminal-173057816-line-2)">
</text><text class="terminal-173057816-r2" x="0" y="93.2" textLength="97.6" clip-path="url(#terminal-173057816-line-3)">Settings</text><text class="terminal-173057816-r2" x="170.8" y="93.2" textLength="97.6" clip-path="url(#terminal-173057816-line-3)">22:40:44</text><text class="terminal-173057816-r1" x="976" y="93.2" textLength="12.2" clip-path="url(#terminal-173057816-line-3)">
</text><text class="terminal-173057816-r2" x="0" y="117.6" textLength="109.8" clip-path="url(#terminal-173057816-line-4)">-&#160;Devices</text><text class="terminal-173057816-r1" x="976" y="117.6" textLength="12.2" clip-path="url(#terminal-173057816-line-4)">
</text><text class="terminal-173057816-r2" x="0" y="142" textLength="97.6" clip-path="url(#terminal-173057816-line-5)">-&#160;Fields</text><text class="terminal-173057816-r3" x="170.8" y="142" textLength="305" clip-path="url(#terminal-173057816-line-5)">&#160;Device&#160;&#160;&#160;&#160;&#160;&#160;&#160;&#160;&#160;&#160;&#160;&#160;&#160;&#160;&#160;&#160;&#160;&#160;</text><text class="terminal-173057816-r3" x="475.8" y="142" textLength="231.8" clip-path="url(#terminal-173057816-line-5)">&#160;model&#160;&#160;&#160;&#160;&#160;&#160;&#160;&#160;&#160;&#160;&#160;&#160;&#160;</text><text class="terminal-173057816-r3" x="707.6" y="142" textLength="122" clip-path="url(#terminal-173057816-line-5)">&#160;ups.load&#160;</text><text class="terminal-173057816-r3" x="829.6" y="142" textLength="122" clip-path="url(#terminal-173057816-line-5)">&#160;ups.statu</text><text class="terminal-173057816-r1" x="976" y="142" textLength="12.2" clip-path="url(#terminal-173057816-line-5)">
</text><text class="terminal-173057816-r2" x="170.8" y="166.4" textLength="305" clip-path="url(#terminal-173057816-line-6)">&#160;myups@linuxpc03.redacted.invalid&#160;</text><text class="terminal-173057816-r2" x="475.8" y="166.4" textLength="231.8" clip-path="url(#terminal-173057816-line-6)">&#160;Back-UPS&#160;ES&#160;600M1&#160;</text><text class="terminal-173057816-r2" x="707.6" y="166.4" textLength="122" clip-path="url(#terminal-173057816-line-6)">&#160;29&#160;&#160;&#160;&#160;&#160;&#160;&#160;</text><text class="terminal-173057816-r2" x="829.6" y="166.4" textLength="122" clip-path="url(#terminal-173057816-line-6)">&#160;OL&#160;&#160;&#160;&#160;&#160;&#160;&#160;</text><text class="terminal-173057816-r1" x="976" y="166.4" textLength="12.2" clip-path="url(#terminal-173057816-line-6)">
</text><text class="terminal-173057816-r2" x="170.8" y="190.8" textLength="305" clip-path="url(#terminal-173057816-line-7)">&#160;myups@pi1.redacted.invalid&#160;&#160;&#160;&#160;&#160;&#160;&#160;</text><text class="terminal-173057816-r2" x="475.8" y="190.8" textLength="231.8" clip-path="url(#terminal-173057816-line-7)">&#160;CP1500PFCLCDa&#160;&#160;&#160;&#160;&#160;</text><text class="terminal-173057816-r2" x="707.6" y="190.8" textLength="122" clip-path="url(#terminal-173057816-line-7)">&#160;30&#160;&#160;&#160;&#160;&#160;&#160;&#160;</text><text class="terminal-173057816-r2" x="829.6" y="190.8" textLength="122" clip-path="url(#terminal-173057816-line-7)">&#160;OL&#160;&#160;&#160;&#160;&#160;&#160;&#160;</text><text class="terminal-173057816-r1" x="976" y="190.8" textLength="12.2" clip-path="url(#terminal-173057816-line-7)">
</text><text class="terminal-173057816-r2" x="170.8" y="215.2" textLength="305" clip-path="url(#terminal-173057816-line-8)">&#160;myups@pi2.redacted.invalid&#160;&#160;&#160;&#160;&#160;&#160;&#160;</text><text class="terminal-173057816-r2" x="475.8" y="215.2" textLength="231.8" clip-path="url(#terminal-173057816-line-8)">&#160;TRIPP&#160;LITE&#160;UPS&#160;&#160;&#160;&#160;</text><text class="terminal-173057816-r2" x="707.6" y="215.2" textLength="122" clip-path="url(#terminal-173057816-line-8)">&#160;-&#160;&#160;&#160;&#160;&#160;&#160;&#160;&#160;</text><text class="terminal-173057816-r2" x="829.6" y="215.2" textLength="122" clip-path="url(#terminal-173057816-line-8)">&#160;OL&#160;&#160;&#160;&#160;&#160;&#160;&#160;</text><text class="terminal-173057816-r1" x="976" y="215.2" textLength="12.2" clip-path="url(#terminal-173057816-line-8)">
</text><text class="terminal-173057816-r1" x="976" y="239.6" textLength="12.2" clip-path="url(#terminal-173057816-line-9)">
</text><text class="terminal-173057816-r1" x="976" y="264" textLength="12.2" clip-path="url(#terminal-173057816-line-10)">
</text><text class="terminal-173057816-r1" x="976" y="288.4" textLength="12.2" clip-path="url(#terminal-173057816-line-11)">
</text><text class="terminal-173057816-r1" x="976" y="312.8" textLength="12.2" clip-path="url(#terminal-173057816-line-12)">
</text><text class="terminal-173057816-r1" x="976" y="337.2" textLength="12.2" clip-path="url(#terminal-173057816-line-13)">
</text><text class="terminal-173057816-r1" x="976" y="361.6" textLength="12.2" clip-path="url(#terminal-173057816-line-14)">
</text><text class="terminal-173057816-r1" x="976" y="386" textLength="12.2" clip-path="url(#terminal-173057816-line-15)">
</text><text class="terminal-173057816-r1" x="976" y="410.4" textLength="12.2" clip-path="url(#terminal-173057816-line-16)">
</text><text class="terminal-173057816-r1" x="976" y="434.8" textLength="12.2" clip-path="url(#terminal-173057816-line-17)">
</text><text class="terminal-173057816-r1" x="976" y="459.2" textLength="12.2" clip-path="url(#terminal-173057816-line-18)">
</text><text class="terminal-173057816-r1" x="976" y="483.6" textLength="12.2" clip-path="url(#terminal-173057816-line-19)">
</text><text class="terminal-173057816-r1" x="976" y="508" textLength="12.2" clip-path="url(#terminal-173057816-line-20)">
</text><text class="terminal-173057816-r5" x="512.4" y="532.4" textLength="12.2" clip-path="url(#terminal-173057816-line-21)">▉</text><text class="terminal-173057816-r1" x="976" y="532.4" textLength="12.2" clip-path="url(#terminal-173057816-line-21)">
</text><text class="terminal-173057816-r1" x="976" y="556.8" textLength="12.2" clip-path="url(#terminal-173057816-line-22)">
</text><text class="terminal-173057816-r6" x="0" y="581.2" textLength="36.6" clip-path="url(#terminal-173057816-line-23)">&#160;q&#160;</text><text class="terminal-173057816-r2" x="36.6" y="581.2" textLength="61" clip-path="url(#terminal-173057816-line-23)">Quit&#160;</text><text class="terminal-173057816-r6" x="97.6" y="581.2" textLength="85.4" clip-path="url(#terminal-173057816-line-23)">&#160;space&#160;</text><text class="terminal-173057816-r2" x="183" y="581.2" textLength="195.2" clip-path="url(#terminal-173057816-line-23)">[space]&#160;refresh&#160;</text><text class="terminal-173057816-r6" x="378.2" y="581.2" textLength="36.6" clip-path="url(#terminal-173057816-line-23)">&#160;s&#160;</text><text class="terminal-173057816-r2" x="414.8" y="581.2" textLength="85.4" clip-path="url(#terminal-173057816-line-23)">[s]ave&#160;</text><text class="terminal-173057816-r7" x="829.6" y="581.2" textLength="12.2" clip-path="url(#terminal-173057816-line-23)">▏</text><text class="terminal-173057816-r6" x="841.8" y="581.2" textLength="24.4" clip-path="url(#terminal-173057816-line-23)">^p</text><text class="terminal-173057816-r2" x="866.2" y="581.2" textLength="97.6" clip-path="url(#terminal-173057816-line-23)">&#160;palette</text>
    </g>
    </g>
</svg>
